<?xml version="1.0" encoding="UTF-8"?>
<svg id="Layer_2" data-name="Layer 2" xmlns="http://www.w3.org/2000/svg" viewBox="0 0 617.76 93.61">
  <defs>
    <style>
      .cls-1 {
        fill: #985d6f;
      }
    </style>
  </defs>
  <g id="Layer_1-2" data-name="Layer 1">
    <g>
      <path class="cls-1" d="m46.4,77.97l-22.24,14.85c-3.59,2.39-8.21-.97-7.04-5.12l7.25-25.74c.51-1.81-.12-3.74-1.59-4.9L1.77,40.49c-3.38-2.67-1.62-8.11,2.69-8.28l26.72-1.06c1.87-.07,3.52-1.27,4.17-3.03L44.62,3.03c1.49-4.04,7.21-4.04,8.71,0l9.27,25.09c.65,1.76,2.29,2.95,4.17,3.03l26.72,1.06c4.31.17,6.07,5.61,2.69,8.28l-20.99,16.57c-1.47,1.16-2.1,3.1-1.59,4.9l7.25,25.74c1.17,4.15-3.46,7.51-7.04,5.12l-22.24-14.85c-1.56-1.04-3.59-1.04-5.15,0Z"/>
      <path class="cls-1" d="m176.35,77.97l-22.24,14.85c-3.59,2.39-8.21-.97-7.04-5.12l7.25-25.74c.51-1.81-.12-3.74-1.59-4.9l-20.99-16.57c-3.38-2.67-1.62-8.11,2.69-8.28l26.72-1.06c1.87-.07,3.52-1.27,4.17-3.03l9.27-25.09c1.49-4.04,7.21-4.04,8.71,0l9.27,25.09c.65,1.76,2.29,2.95,4.17,3.03l26.72,1.06c4.31.17,6.07,5.61,2.69,8.28l-20.99,16.57c-1.47,1.16-2.1,3.1-1.59,4.9l7.25,25.74c1.17,4.15-3.46,7.51-7.04,5.12l-22.24-14.85c-1.56-1.04-3.59-1.04-5.15,0Z"/>
      <path class="cls-1" d="m306.3,77.97l-22.24,14.85c-3.59,2.39-8.21-.97-7.04-5.12l7.25-25.74c.51-1.81-.12-3.74-1.59-4.9l-20.99-16.57c-3.38-2.67-1.62-8.11,2.69-8.28l26.72-1.06c1.87-.07,3.52-1.27,4.17-3.03l9.27-25.09c1.49-4.04,7.21-4.04,8.71,0l9.27,25.09c.65,1.76,2.29,2.95,4.17,3.03l26.72,1.06c4.31.17,6.07,5.61,2.69,8.28l-20.99,16.57c-1.47,1.16-2.1,3.1-1.59,4.9l7.25,25.74c1.17,4.15-3.46,7.51-7.04,5.12l-22.24-14.85c-1.56-1.04-3.59-1.04-5.15,0Z"/>
      <path class="cls-1" d="m436.25,77.97l-22.24,14.85c-3.59,2.39-8.21-.97-7.04-5.12l7.25-25.74c.51-1.81-.12-3.74-1.59-4.9l-20.99-16.57c-3.38-2.67-1.62-8.11,2.69-8.28l26.72-1.06c1.87-.07,3.52-1.27,4.17-3.03l9.27-25.09c1.49-4.04,7.21-4.04,8.71,0l9.27,25.09c.65,1.76,2.29,2.95,4.17,3.03l26.72,1.06c4.31.17,6.07,5.61,2.69,8.28l-20.99,16.57c-1.47,1.16-2.1,3.1-1.59,4.9l7.25,25.74c1.17,4.15-3.46,7.51-7.04,5.12l-22.24-14.85c-1.56-1.04-3.59-1.04-5.15,0Z"/>
      <path class="cls-1" d="m568.78,3c.34,0,1.18.1,1.54,1.07l9.27,25.09c1.07,2.91,3.77,4.86,6.86,4.99l26.72,1.06c1.03.04,1.39.81,1.5,1.13.11.33.27,1.16-.54,1.8l-20.99,16.57c-2.43,1.92-3.46,5.09-2.62,8.07l7.25,25.74c.15.53.07,1-.24,1.41-.32.43-.84.7-1.35.7-.31,0-.6-.1-.9-.29l-22.24-14.85c-1.26-.84-2.73-1.29-4.24-1.29s-2.98.44-4.24,1.29l-22.24,14.85c-.29.19-.6.29-.9.29-.51,0-1.02-.27-1.35-.7-.31-.41-.39-.88-.24-1.41l7.25-25.74c.84-2.98-.19-6.15-2.62-8.07l-20.99-16.57c-.81-.64-.65-1.47-.54-1.8.11-.33.46-1.09,1.5-1.13l26.72-1.06c3.1-.12,5.79-2.08,6.86-4.99l9.27-25.09c.36-.97,1.2-1.07,1.54-1.07m0-3c-1.8,0-3.61,1.01-4.35,3.03l-9.27,25.09c-.65,1.76-2.29,2.95-4.17,3.03l-26.72,1.06c-4.31.17-6.07,5.61-2.69,8.28l20.99,16.57c1.47,1.16,2.1,3.1,1.59,4.9l-7.25,25.74c-.9,3.19,1.63,5.92,4.48,5.92.85,0,1.74-.25,2.57-.8l22.24-14.85c.78-.52,1.68-.78,2.58-.78s1.8.26,2.58.78l22.24,14.85c.83.55,1.71.8,2.57.8,2.85,0,5.38-2.73,4.48-5.92l-7.25-25.74c-.51-1.81.12-3.74,1.59-4.9l20.99-16.57c3.38-2.67,1.62-8.11-2.69-8.28l-26.72-1.06c-1.87-.07-3.52-1.27-4.17-3.03l-9.27-25.09c-.75-2.02-2.55-3.03-4.35-3.03h0Z"/>
    </g>
  </g>
</svg>