<?xml version="1.0" encoding="UTF-8"?>
<svg id="Layer_2" data-name="Layer 2" xmlns="http://www.w3.org/2000/svg" viewBox="0 0 617.76 93.61">
  <defs>
    <style>
      .cls-1 {
        fill: #985d6f;
      }
    </style>
  </defs>
  <g id="Layer_1-2" data-name="Layer 1">
    <g>
      <path class="cls-1" d="m46.4,77.97l-22.24,14.85c-3.59,2.39-8.21-.97-7.04-5.12l7.25-25.74c.51-1.81-.12-3.74-1.59-4.9L1.77,40.49c-3.38-2.67-1.62-8.11,2.69-8.28l26.72-1.06c1.87-.07,3.52-1.27,4.17-3.03L44.62,3.03c1.49-4.04,7.21-4.04,8.71,0l9.27,25.09c.65,1.76,2.29,2.95,4.17,3.03l26.72,1.06c4.31.17,6.07,5.61,2.69,8.28l-20.99,16.57c-1.47,1.16-2.1,3.1-1.59,4.9l7.25,25.74c1.17,4.15-3.46,7.51-7.04,5.12l-22.24-14.85c-1.56-1.04-3.59-1.04-5.15,0Z"/>
      <path class="cls-1" d="m176.35,77.97l-22.24,14.85c-3.59,2.39-8.21-.97-7.04-5.12l7.25-25.74c.51-1.81-.12-3.74-1.59-4.9l-20.99-16.57c-3.38-2.67-1.62-8.11,2.69-8.28l26.72-1.06c1.87-.07,3.52-1.27,4.17-3.03l9.27-25.09c1.49-4.04,7.21-4.04,8.71,0l9.27,25.09c.65,1.76,2.29,2.95,4.17,3.03l26.72,1.06c4.31.17,6.07,5.61,2.69,8.28l-20.99,16.57c-1.47,1.16-2.1,3.1-1.59,4.9l7.25,25.74c1.17,4.15-3.46,7.51-7.04,5.12l-22.24-14.85c-1.56-1.04-3.59-1.04-5.15,0Z"/>
      <path class="cls-1" d="m306.3,77.97l-22.24,14.85c-3.59,2.39-8.21-.97-7.04-5.12l7.25-25.74c.51-1.81-.12-3.74-1.59-4.9l-20.99-16.57c-3.38-2.67-1.62-8.11,2.69-8.28l26.72-1.06c1.87-.07,3.52-1.27,4.17-3.03l9.27-25.09c1.49-4.04,7.21-4.04,8.71,0l9.27,25.09c.65,1.76,2.29,2.95,4.17,3.03l26.72,1.06c4.31.17,6.07,5.61,2.69,8.28l-20.99,16.57c-1.47,1.16-2.1,3.1-1.59,4.9l7.25,25.74c1.17,4.15-3.46,7.51-7.04,5.12l-22.24-14.85c-1.56-1.04-3.59-1.04-5.15,0Z"/>
      <path class="cls-1" d="m436.25,77.97l-22.24,14.85c-3.59,2.39-8.21-.97-7.04-5.12l7.25-25.74c.51-1.81-.12-3.74-1.59-4.9l-20.99-16.57c-3.38-2.67-1.62-8.11,2.69-8.28l26.72-1.06c1.87-.07,3.52-1.27,4.17-3.03l9.27-25.09c1.49-4.04,7.21-4.04,8.71,0l9.27,25.09c.65,1.76,2.29,2.95,4.17,3.03l26.72,1.06c4.31.17,6.07,5.61,2.69,8.28l-20.99,16.57c-1.47,1.16-2.1,3.1-1.59,4.9l7.25,25.74c1.17,4.15-3.46,7.51-7.04,5.12l-22.24-14.85c-1.56-1.04-3.59-1.04-5.15,0Z"/>
      <path class="cls-1" d="m566.2,77.97l-22.24,14.85c-3.59,2.39-8.21-.97-7.04-5.12l7.25-25.74c.51-1.81-.12-3.74-1.59-4.9l-20.99-16.57c-3.38-2.67-1.62-8.11,2.69-8.28l26.72-1.06c1.87-.07,3.52-1.27,4.17-3.03l9.27-25.09c1.49-4.04,7.21-4.04,8.71,0l9.27,25.09c.65,1.76,2.29,2.95,4.17,3.03l26.72,1.06c4.31.17,6.07,5.61,2.69,8.28l-20.99,16.57c-1.47,1.16-2.1,3.1-1.59,4.9l7.25,25.74c1.17,4.15-3.46,7.51-7.04,5.12l-22.24-14.85c-1.56-1.04-3.59-1.04-5.15,0Z"/>
    </g>
  </g>
</svg>