<?xml version="1.0" encoding="utf-8"?>
<!-- Generator: Adobe Illustrator 27.7.0, SVG Export Plug-In . SVG Version: 6.00 Build 0)  -->
<svg version="1.1" id="Layer_1" xmlns="http://www.w3.org/2000/svg" xmlns:xlink="http://www.w3.org/1999/xlink" x="0px" y="0px"
	 viewBox="0 0 800 800" style="enable-background:new 0 0 800 800;" xml:space="preserve">
<style type="text/css">
	.st0{fill:#985D6F;}
</style>
<g>
	<path class="st0" d="M366.7,625H300c-48.9,0-84.2,0-113.1-3.9c-34-4.6-57.3-14.7-75.3-32.7c-18.1-18.1-28.2-41.3-32.7-75.3
		C75,484.2,75,448.9,75,400v-33.3c0-13.8,11.2-25,25-25c13.8,0,25,11.2,25,25V400c0,87.3,0,131.1,22,153c22,22,65.8,22,153,22h66.7
		c87.3,0,131.1,0,153-22c22-22,22-65.8,22-153V233.3c0-58.2-0.5-84.4-12.2-96.1c-11.7-11.7-37.9-12.2-96.1-12.2h-200
		c-58.2,0-84.4,0.5-96.1,12.2c-11.7,11.7-12.2,37.9-12.2,96.1c0,13.8-11.2,25-25,25c-13.8,0-25-11.2-25-25
		c0-67.5,0-104.6,26.8-131.5C128.7,75,165.9,75,233.3,75h200c67.5,0,104.6,0,131.5,26.8c26.8,26.8,26.8,64,26.8,131.5V400
		c0,48.9,0,84.2-3.9,113.1c-4.6,34-14.7,57.3-32.7,75.3s-41.3,28.2-75.3,32.7C450.8,625,415.5,625,366.7,625z"/>
</g>
<g>
	<path class="st0" d="M600,458.3h-33.3v-50H600c59.7,0,108.3-48.6,108.3-108.3S659.7,191.7,600,191.7h-33.3v-50H600
		c87.3,0,158.3,71,158.3,158.3S687.3,458.3,600,458.3z"/>
</g>
<g>
	<path class="st0" d="M566.7,458.3h-100c-13.8,0-25-11.2-25-25s11.2-25,25-25h100c13.8,0,25,11.2,25,25S580.5,458.3,566.7,458.3z
		 M333.3,458.3H100c-13.8,0-25-11.2-25-25s11.2-25,25-25h233.3c13.8,0,25,11.2,25,25S347.1,458.3,333.3,458.3z"/>
</g>
<g>
	<path class="st0" d="M733.3,725H66.7c-13.8,0-25-11.2-25-25s11.2-25,25-25h666.7c13.8,0,25,11.2,25,25S747.1,725,733.3,725z"/>
</g>
</svg>
