<?xml version="1.0" encoding="utf-8"?>
<!-- Generator: Adobe Illustrator 27.7.0, SVG Export Plug-In . SVG Version: 6.00 Build 0)  -->
<svg version="1.1" id="Layer_1" xmlns="http://www.w3.org/2000/svg" xmlns:xlink="http://www.w3.org/1999/xlink" x="0px" y="0px"
	 viewBox="0 0 800 800" style="enable-background:new 0 0 800 800;" xml:space="preserve">
<style type="text/css">
	.st0{fill:#985D6F;}
</style>
<path class="st0" d="M298.7,630.4l15.5-19.6L298.7,630.4z M400,183.4l-18,17.3c4.7,4.9,11.2,7.7,18,7.7c6.8,0,13.3-2.8,18-7.7
	L400,183.4z M501.3,630.4l15.5,19.6L501.3,630.4z M233.4,547.4c-10.7-8.8-26.4-7.2-35.2,3.4c-8.8,10.7-7.2,26.4,3.4,35.2
	L233.4,547.4z M78.1,447c6.6,12.1,21.8,16.6,33.9,9.9c12.1-6.6,16.6-21.8,9.9-33.9L78.1,447z M91.7,304.6
	c0-71.7,40.5-131.8,95.8-157.1c53.7-24.6,125.9-18.1,194.5,53.2l36-34.7c-81.4-84.6-175.9-98.5-251.3-64
	c-73.9,33.8-125,112.2-125,202.6H91.7z M283.2,650c17.1,13.5,35.4,27.8,54,38.7c18.6,10.8,39.8,19.7,62.8,19.7v-50
	c-10.3,0-22.5-4-37.5-12.8c-15.1-8.8-30.7-20.9-48.3-34.8L283.2,650z M516.8,650c47.6-37.5,108.3-80.4,156-134.1
	c48.5-54.7,85.6-122.4,85.6-211.3h-50c0,73.2-30,129.7-72.9,178.1c-43.8,49.4-99.1,88.2-149.6,128.1L516.8,650z M758.3,304.6
	c0-90.4-51.2-168.8-125-202.6C557.9,67.5,463.4,81.5,382,166l36,34.7c68.6-71.3,140.8-77.8,194.5-53.2
	c55.3,25.3,95.8,85.4,95.8,157.1H758.3z M485.8,610.7c-17.5,13.8-33.2,26-48.3,34.8c-15.1,8.8-27.2,12.8-37.5,12.8v50
	c23,0,44.2-8.8,62.8-19.7c18.6-10.9,36.9-25.2,54-38.7L485.8,610.7z M314.2,610.7c-26.5-20.9-53.5-40.9-80.8-63.4L201.6,586
	c27.7,22.8,56.9,44.5,81.7,64L314.2,610.7z M121.9,423.1c-18.7-34.2-30.3-72.9-30.3-118.5h-50c0,54.6,14,101.5,36.4,142.5
	L121.9,423.1z"/>
</svg>
