<?xml version="1.0" encoding="UTF-8"?>
<svg id="Layer_2" data-name="Layer 2" xmlns="http://www.w3.org/2000/svg" viewBox="0 0 175.75 60">
  <defs>
    <style>
      .cls-1 {
        fill: #e3cdbd;
      }
    </style>
  </defs>
  <g id="Layer_1-2" data-name="Layer 1">
    <g>
      <g>
        <path class="cls-1" d="m39.11,7.78c0-5.52,1.08-9.2,11.33-7.16v4.11c-6.24-1.38-7.06,0-7.06,2.63v13.79c0,1.81.66,2.36,1.97,2.36s1.91-.49,1.91-2.36v-1.74h-2.79l1.64-3.94h5.42v5.35c0,5.42-3.28,6.63-6.24,6.63-3.22,0-6.17-1.38-6.17-6.63V7.78Z"/>
        <path class="cls-1" d="m61.44,20.1c0,2.63.82,4.01,7.06,2.63v4.11c-10.25,2.04-11.33-1.64-11.33-7.16V7.78c0-5.52,1.08-9.2,11.33-7.16v4.11c-6.24-1.38-7.06,0-7.06,2.63v8.11h6.24v3.94h-6.24v.69Z"/>
        <path class="cls-1" d="m80.65,27.56c-3.22,0-6.17-1.38-6.17-6.63V6.67c0-5.26,2.96-6.63,6.17-6.63,2.96,0,6.24,1.21,6.24,6.63v14.25c0,5.42-3.28,6.63-6.24,6.63Zm-1.91-6.31c0,1.81.66,2.36,1.97,2.36s1.9-.49,1.9-2.36V6.34c0-1.87-.66-2.36-1.9-2.36-1.31,0-1.97.56-1.97,2.36v14.91Z"/>
        <path class="cls-1" d="m99.1.56c5.52,0,7.16,1.41,7.16,6.9,0,4.5-.26,7.19-2.56,9h2.56v4.7c0,4.57,1.64,5.75,1.64,5.75h-4.2c-.07.03-1.64-.69-1.64-5.75v-1.74h-3.94v7.49h-4.27V.56h5.25Zm-.98,14.91h.98c2.14,0,2.96-2.17,2.96-6.63v-1.61c0-2.14-.49-2.63-2.79-2.63h-1.15v10.87Z"/>
        <path class="cls-1" d="m112.73,7.75c0-5.52,1.08-9.2,11.33-7.16v4.11c-6.24-1.38-7.06,0-7.06,2.63v13.93c0,1.81.66,2.36,1.97,2.36s1.9-.49,1.9-2.36v-1.84h-2.79l1.64-3.94h5.42v5.45c0,5.42-3.28,6.63-6.24,6.63-3.22,0-6.17-1.38-6.17-6.63V7.75Z"/>
        <path class="cls-1" d="m135.39,26.9h-4.17V.56h4.17v26.34Z"/>
        <path class="cls-1" d="m142.35,6.63c0-5.25,2.96-6.63,6.17-6.63,3.02,0,6.24,1.15,6.24,6.63v20.26h-4.2v-7.49h-3.94v7.49h-4.27V6.63Zm8.21-.3c0-1.87-.72-2.36-1.97-2.36-1.31,0-1.97.56-1.97,2.36v9.13h3.94V6.34Z"/>
        <path class="cls-1" d="m174.11,21.15c0,4.6,1.64,5.75,1.64,5.75h-4.17s-1.64-.56-1.64-5.75V6.47c0-1.38-.76-2.2-1.97-2.2-1.31,0-1.97.82-1.97,2.2v20.43h-4.27V.56h4.27v1.48s.66-1.71,3.51-1.71,4.6,1.22,4.6,6.96v13.86Z"/>
        <path class="cls-1" d="m40.06,33.4h2.1c2.2,0,2.86.82,2.86,3.45v10.77c0,2.07-.26,2.86-1.02,3.45h1.02v6.37c0,1.84.66,2.3.66,2.3h-1.68s-.66-.23-.66-2.3v-5.19h-1.58v7.49h-1.71v-26.34Zm3.28,2.66c0-.85-.2-1.05-1.12-1.05h-.46v15.67h.39c.85,0,1.18-.85,1.18-2.66v-11.96Z"/>
        <path class="cls-1" d="m63.67,57.01c0,1.05.33,1.61,2.82,1.05v1.64c-4.11.82-4.53-.66-4.53-2.86v-20.53c0-2.2.43-3.68,4.53-2.86v1.64c-2.5-.56-2.82,0-2.82,1.05v14.52h2.5v1.58h-2.5v4.76Z"/>
        <path class="cls-1" d="m83.11,36.32c0-2.2.43-3.68,4.53-2.86v1.64c-2.5-.56-2.82,0-2.82,1.05v20.86c0,1.05.33,1.61,2.82,1.05v1.64c-4.11.82-4.53-.66-4.53-2.86v-20.53Z"/>
        <path class="cls-1" d="m106.23,60c-1.28,0-2.46-.56-2.46-2.66v-21.51c0-2.1,1.18-2.66,2.46-2.66,1.18,0,2.5.49,2.5,2.66v21.51c0,2.17-1.31,2.66-2.5,2.66Zm-.76-2.53c0,.72.26.95.79.95.49,0,.76-.2.76-.95v-21.77c0-.76-.26-.95-.76-.95-.53,0-.79.23-.79.95v21.77Z"/>
        <path class="cls-1" d="m126,33.4h2.1c2.2,0,2.86.82,2.86,3.45v10.77c0,2.07-.26,2.86-1.02,3.45h1.02v6.37c0,1.84.66,2.3.66,2.3h-1.67s-.66-.23-.66-2.3v-5.19h-1.58v7.49h-1.71v-26.34Zm3.28,2.66c0-.85-.2-1.05-1.12-1.05h-.46v15.67h.39c.85,0,1.18-.85,1.18-2.66v-11.96Z"/>
        <path class="cls-1" d="m148.06,33.4h2.1c2.2,0,2.86.82,2.86,3.45v19.44c0,2.63-.66,3.45-2.86,3.45h-2.1v-26.34Zm3.28,2.66c0-.85-.2-1.05-1.12-1.05h-.46v23.12h.46c.92,0,1.12-.2,1.12-1.05v-21.02Z"/>
        <path class="cls-1" d="m174.66,56.85c0,2.2-.43,3.68-4.53,2.86v-1.64c2.5.56,2.82,0,2.82-1.05v-4.83h-2.82v-15.86c0-2.2.43-3.68,4.53-2.86v1.64c-2.5-.56-2.82,0-2.82,1.05v14.62h2.82v6.08Z"/>
      </g>
      <path class="cls-1" d="m30,18.31V0C13.43,0,0,13.43,0,30s13.43,30,30,30V25.64c-2.41,0-4.36,1.95-4.36,4.36,0,1.99,1.34,3.67,3.16,4.19v7.44c-5.89-.6-10.49-5.58-10.49-11.63,0-6.46,5.23-11.69,11.69-11.69Zm-15.11,11.69c0,7.93,6.14,14.44,13.91,15.06v.54c-8.07-.61-14.45-7.37-14.45-15.6h.54Zm-1.25,0c0,8.62,6.7,15.7,15.16,16.31v.54c-8.76-.62-15.71-7.94-15.71-16.86h.54Zm-1.25,0c0,9.31,7.26,16.95,16.41,17.57v.54c-9.45-.62-16.96-8.5-16.96-18.11h.54Zm-1.25,0c0,10,7.82,18.2,17.67,18.82v.54c-10.14-.62-18.21-9.07-18.21-19.37h.54Zm-1.25,0c0,10.69,8.38,19.45,18.92,20.08v.54c-10.83-.62-19.46-9.63-19.46-20.62h.54Zm-1.25,0c0,11.38,8.94,20.71,20.17,21.33v.54c-11.53-.62-20.71-10.2-20.71-21.88h.54Zm-1.25,0c0,12.07,9.5,21.96,21.42,22.59v.54c-12.22-.63-21.96-10.76-21.96-23.13h.54Zm-1.25,0c0,12.76,10.06,23.21,22.67,23.84v.54c-12.91-.63-23.21-11.32-23.21-24.38h.54Zm-1.25,0c0,13.45,10.63,24.46,23.92,25.09v.54c-13.6-.63-24.47-11.88-24.47-25.63h.54Zm-1.25,0c0,14.14,11.19,25.71,25.17,26.34v.54c-14.29-.63-25.72-12.45-25.72-26.88h.54Zm-1.79,0h.54c0,14.83,11.75,26.96,26.43,27.59v.54c-14.98-.63-26.97-13.01-26.97-28.14Zm26.97,13.8v.54c-7.38-.61-13.2-6.81-13.2-14.35h.54c0,7.24,5.58,13.19,12.66,13.8Z"/>
    </g>
  </g>
</svg>