<?xml version="1.0" encoding="UTF-8"?>
<svg id="Layer_2" data-name="Layer 2" xmlns="http://www.w3.org/2000/svg" viewBox="0 0 177.36 260.1">
  <defs>
    <style>
      .cls-1 {
        fill: #e3cdbd;
      }
    </style>
  </defs>
  <g id="DESIGNED_BY_FREEPIK" data-name="DESIGNED BY FREEPIK">
    <g>
      <g>
        <path class="cls-1" d="m0,192.32c0-7.16,1.41-11.94,14.71-9.29v5.33c-8.1-1.79-9.17,0-9.17,3.41v17.91c0,2.35.85,3.07,2.56,3.07s2.47-.64,2.47-3.07v-2.26h-3.62l2.13-5.12h7.03v6.95c0,7.03-4.26,8.61-8.1,8.61-4.18,0-8.02-1.79-8.02-8.61v-16.93Z"/>
        <path class="cls-1" d="m28.99,208.31c0,3.41,1.07,5.2,9.17,3.41v5.33c-13.3,2.64-14.71-2.13-14.71-9.29v-15.43c0-7.16,1.41-11.94,14.71-9.29v5.33c-8.1-1.79-9.17,0-9.17,3.41v10.53h8.1v5.12h-8.1v.9Z"/>
        <path class="cls-1" d="m53.92,217.98c-4.18,0-8.02-1.79-8.02-8.61v-18.5c0-6.82,3.84-8.61,8.02-8.61,3.84,0,8.1,1.58,8.1,8.61v18.5c0,7.03-4.26,8.61-8.1,8.61Zm-2.47-8.19c0,2.35.85,3.07,2.56,3.07s2.47-.64,2.47-3.07v-19.35c0-2.43-.85-3.07-2.47-3.07-1.71,0-2.56.72-2.56,3.07v19.35Z"/>
        <path class="cls-1" d="m77.88,182.94c7.16,0,9.29,1.83,9.29,8.95,0,5.84-.34,9.34-3.33,11.68h3.33v6.1c0,5.93,2.13,7.46,2.13,7.46h-5.46c-.09.04-2.13-.9-2.13-7.46v-2.26h-5.12v9.72h-5.54v-34.19h6.82Zm-1.28,19.35h1.28c2.77,0,3.84-2.81,3.84-8.61v-2.09c0-2.77-.64-3.41-3.62-3.41h-1.49v14.11Z"/>
        <path class="cls-1" d="m95.56,192.28c0-7.16,1.41-11.94,14.71-9.29v5.33c-8.1-1.79-9.17,0-9.17,3.41v18.08c0,2.35.85,3.07,2.56,3.07s2.47-.64,2.47-3.07v-2.39h-3.62l2.13-5.12h7.03v7.08c0,7.03-4.26,8.61-8.1,8.61-4.18,0-8.02-1.79-8.02-8.61v-17.1Z"/>
        <path class="cls-1" d="m124.98,217.13h-5.41v-34.19h5.41v34.19Z"/>
        <path class="cls-1" d="m134.01,190.83c0-6.82,3.84-8.61,8.02-8.61,3.92,0,8.1,1.49,8.1,8.61v26.3h-5.46v-9.72h-5.12v9.72h-5.54v-26.3Zm10.66-.38c0-2.43-.94-3.07-2.56-3.07-1.71,0-2.56.72-2.56,3.07v11.85h5.12v-11.85Z"/>
        <path class="cls-1" d="m175.23,209.67c0,5.97,2.13,7.46,2.13,7.46h-5.41s-2.13-.72-2.13-7.46v-19.06c0-1.79-.98-2.86-2.56-2.86-1.7,0-2.56,1.07-2.56,2.86v26.52h-5.54v-34.19h5.54v1.92s.85-2.22,4.56-2.22,5.97,1.58,5.97,9.04v17.99Z"/>
        <path class="cls-1" d="m1.24,225.57h2.73c2.86,0,3.71,1.07,3.71,4.48v13.98c0,2.69-.34,3.71-1.32,4.48h1.32v8.27c0,2.39.85,2.98.85,2.98h-2.17s-.85-.3-.85-2.98v-6.74h-2.05v9.72H1.24v-34.19Zm4.26,3.45c0-1.11-.26-1.36-1.45-1.36h-.6v20.34h.51c1.11,0,1.53-1.11,1.53-3.45v-15.52Z"/>
        <path class="cls-1" d="m31.88,256.22c0,1.36.43,2.09,3.67,1.36v2.13c-5.33,1.07-5.88-.85-5.88-3.71v-26.64c0-2.86.55-4.77,5.88-3.71v2.13c-3.24-.72-3.67,0-3.67,1.36v18.84h3.24v2.05h-3.24v6.18Z"/>
        <path class="cls-1" d="m57.12,229.36c0-2.86.55-4.77,5.88-3.71v2.13c-3.24-.72-3.67,0-3.67,1.36v27.07c0,1.36.43,2.09,3.67,1.36v2.13c-5.33,1.07-5.88-.85-5.88-3.71v-26.64Z"/>
        <path class="cls-1" d="m87.13,260.1c-1.66,0-3.2-.72-3.2-3.45v-27.92c0-2.73,1.53-3.45,3.2-3.45,1.53,0,3.24.64,3.24,3.45v27.92c0,2.81-1.7,3.45-3.24,3.45Zm-.98-3.28c0,.94.34,1.24,1.02,1.24.64,0,.98-.26.98-1.24v-28.26c0-.98-.34-1.24-.98-1.24-.68,0-1.02.3-1.02,1.24v28.26Z"/>
        <path class="cls-1" d="m112.78,225.57h2.73c2.86,0,3.71,1.07,3.71,4.48v13.98c0,2.69-.34,3.71-1.32,4.48h1.32v8.27c0,2.39.85,2.98.85,2.98h-2.17s-.85-.3-.85-2.98v-6.74h-2.05v9.72h-2.22v-34.19Zm4.26,3.45c0-1.11-.26-1.36-1.45-1.36h-.6v20.34h.51c1.11,0,1.53-1.11,1.53-3.45v-15.52Z"/>
        <path class="cls-1" d="m141.43,225.57h2.73c2.86,0,3.71,1.07,3.71,4.48v25.24c0,3.41-.85,4.48-3.71,4.48h-2.73v-34.19Zm4.26,3.45c0-1.11-.26-1.36-1.45-1.36h-.6v30.01h.6c1.19,0,1.45-.26,1.45-1.36v-27.28Z"/>
        <path class="cls-1" d="m175.95,256c0,2.86-.55,4.78-5.88,3.71v-2.13c3.24.72,3.67,0,3.67-1.36v-6.27h-3.67v-20.59c0-2.86.55-4.77,5.88-3.71v2.13c-3.24-.72-3.67,0-3.67,1.36v18.97h3.67v7.89Z"/>
      </g>
      <path class="cls-1" d="m110.27,49.55V0C65.43,0,29.08,36.35,29.08,81.19s36.35,81.19,81.19,81.19v-92.99c-6.51,0-11.8,5.28-11.8,11.8,0,5.39,3.62,9.92,8.55,11.33v20.14c-15.95-1.62-28.4-15.1-28.4-31.48,0-17.48,14.17-31.64,31.64-31.64Zm-40.89,31.64c0,21.45,16.61,39.09,37.65,40.75v1.47c-21.85-1.66-39.12-19.96-39.12-42.22h1.47Zm-3.39,0c0,23.32,18.13,42.48,41.04,44.14v1.47c-23.72-1.67-42.5-21.48-42.5-45.62h1.47Zm-3.39,0c0,25.19,19.65,45.87,44.42,47.54v1.47c-25.58-1.68-45.89-23.01-45.89-49.01h1.47Zm-3.39,0c0,27.06,21.17,49.26,47.81,50.94v1.47c-27.45-1.68-49.28-24.54-49.28-52.41h1.47Zm-3.39,0c0,28.93,22.68,52.65,51.2,54.33v1.47c-29.32-1.69-52.66-26.07-52.66-55.8h1.47Zm-3.39,0c0,30.8,24.2,56.04,54.58,57.73v1.47c-31.19-1.69-56.05-27.6-56.05-59.2h1.47Zm-3.39,0c0,32.67,25.72,59.43,57.97,61.12v1.47c-33.06-1.69-59.44-29.12-59.44-62.6h1.47Zm-3.39,0c0,34.53,27.24,62.82,61.36,64.52v1.47c-34.93-1.7-62.83-30.64-62.83-65.99h1.47Zm-3.39,0c0,36.4,28.76,66.2,64.74,67.9v1.47c-36.8-1.7-66.21-32.16-66.21-69.37h1.47Zm-3.39,0c0,38.27,30.28,69.59,68.13,71.29v1.47c-38.67-1.7-69.6-33.68-69.6-72.76h1.47Zm-4.86,0h1.47c0,40.14,31.79,72.97,71.52,74.68v1.47c-40.53-1.71-72.99-35.2-72.99-76.15Zm72.99,37.35v1.47c-19.98-1.65-35.73-18.43-35.73-38.83h1.47c0,19.59,15.1,35.7,34.26,37.35Z"/>
    </g>
  </g>
</svg>