<?xml version="1.0" encoding="UTF-8"?>
<svg id="Layer_2" data-name="Layer 2" xmlns="http://www.w3.org/2000/svg" viewBox="0 0 81.85 65.93">
  <defs>
    <style>
      .cls-1 {
        fill: #985d6f;
      }
    </style>
  </defs>
  <g id="Layer_1-2" data-name="Layer 1">
    <path class="cls-1" d="m32.71,0l3.87,8.02c-9.88,6.12-21.21,17.83-24.36,32.39l.9-15.89,13.46,9.76c6.51,4.75,8.27,9.93,8.27,15.69,0,9.4-7.57,15.96-16.21,15.96-6.23,0-10.65-2.89-14.05-5.62C1.52,54.95,0,48.79,0,42.73,0,24.13,13.51,8.25,32.71,0Zm45.27,0l3.87,8.02c-9.88,6.12-21.21,17.83-24.36,32.39l.9-15.89,13.46,9.76c6.51,4.75,8.27,9.93,8.27,15.69,0,9.4-7.57,15.96-16.21,15.96-6.23,0-10.65-2.89-14.05-5.62-3.07-5.37-4.59-11.53-4.59-17.59,0-18.59,13.51-34.48,32.71-42.73Z"/>
  </g>
</svg>