<?xml version="1.0" encoding="UTF-8"?>
<svg id="Layer_2" data-name="Layer 2" xmlns="http://www.w3.org/2000/svg" viewBox="0 0 49.91 49.91">
  <defs>
    <style>
      .cls-1 {
        fill: #e3cdbd;
      }
    </style>
  </defs>
  <g id="Layer_1-2" data-name="Layer 1">
    <g>
      <path class="cls-1" d="m37.69,16.92c-.82.37-1.74.59-2.62.74.42-.07,1.02-.83,1.27-1.13.38-.47.68-1,.86-1.57.02-.04.04-.1,0-.14-.06-.02-.09-.01-.14.01-.98.53-2,.91-3.08,1.18-.09.02-.16,0-.21-.06-.09-.1-.17-.2-.27-.28-.45-.39-.94-.69-1.49-.91-.72-.29-1.51-.42-2.29-.37-.76.05-1.5.26-2.17.61-.67.35-1.27.84-1.75,1.43-.49.61-.86,1.33-1.05,2.09-.18.74-.17,1.47-.06,2.21.02.12,0,.14-.11.12-4.23-.63-7.74-2.14-10.58-5.39-.12-.14-.19-.14-.29.01-1.25,1.87-.64,4.87.91,6.34.21.2.42.39.65.57-.08.02-1.12-.09-2.04-.57-.12-.08-.19-.03-.2.11-.01.2,0,.39.03.61.24,1.89,1.55,3.64,3.34,4.33.21.09.45.17.68.21-.41.09-.83.15-2,.06-.15-.03-.2.04-.15.19.88,2.4,2.78,3.12,4.21,3.52.19.03.38.03.57.08-.01.02-.02.02-.03.03-.47.72-2.11,1.26-2.87,1.52-1.39.48-2.9.7-4.36.56-.23-.03-.28-.03-.35,0-.06.04,0,.1.07.16.3.2.6.37.91.54.93.49,1.9.89,2.92,1.17,5.24,1.45,11.15.38,15.09-3.53,3.09-3.07,4.18-7.31,4.18-11.55,0-.17.2-.26.31-.35.8-.6,1.5-1.33,2.1-2.14.13-.18.18-.34.18-.41v-.02c0-.07-.05-.05-.15,0Z"/>
      <path class="cls-1" d="m24.96,0C11.2,0,0,11.2,0,24.96s11.2,24.96,24.96,24.96,24.96-11.2,24.96-24.96S38.72,0,24.96,0Zm0,46.71c-12,0-21.76-9.76-21.76-21.76S12.96,3.2,24.96,3.2s21.76,9.76,21.76,21.76-9.76,21.76-21.76,21.76Z"/>
    </g>
  </g>
</svg>