<?xml version="1.0" encoding="UTF-8"?>
<svg id="Layer_2" data-name="Layer 2" xmlns="http://www.w3.org/2000/svg" viewBox="0 0 49.91 49.91">
  <defs>
    <style>
      .cls-1, .cls-2 {
        fill: #e3cdbd;
      }

      .cls-2 {
        fill-rule: evenodd;
      }
    </style>
  </defs>
  <g id="Layer_1-2" data-name="Layer 1">
    <g>
      <path class="cls-2" d="m21.68,25.06v12.21c0,.18.14.32.32.32h4.53c.18,0,.32-.14.32-.32v-12.41h3.29c.17,0,.3-.13.32-.29l.32-3.74c.02-.19-.13-.34-.32-.34h-3.6v-2.65c0-.62.5-1.13,1.13-1.13h2.53c.18,0,.32-.14.32-.32v-3.74c0-.18-.14-.32-.32-.32h-4.28c-2.51,0-4.55,2.04-4.55,4.55v3.6h-2.27c-.18,0-.32.14-.32.32v3.74c0,.18.14.32.32.32h2.27v.2Z"/>
      <path class="cls-1" d="m24.96,0C11.2,0,0,11.2,0,24.96s11.2,24.96,24.96,24.96,24.96-11.2,24.96-24.96S38.72,0,24.96,0Zm21.76,24.96c0,12-9.76,21.76-21.76,21.76S3.2,36.95,3.2,24.96,12.96,3.2,24.96,3.2s21.76,9.76,21.76,21.76Z"/>
    </g>
  </g>
</svg>