<?xml version="1.0" encoding="UTF-8"?>
<svg id="Layer_2" data-name="Layer 2" xmlns="http://www.w3.org/2000/svg" viewBox="0 0 49.91 49.91">
  <defs>
    <style>
      .cls-1 {
        fill: #e3cdbd;
      }
    </style>
  </defs>
  <g id="Layer_1-2" data-name="Layer 1">
    <g>
      <path class="cls-1" d="m33.27,18.07c0,.83-.67,1.49-1.49,1.49s-1.5-.67-1.5-1.49.67-1.5,1.5-1.5,1.49.67,1.49,1.5Zm-1.86,6.7c0,3.46-2.82,6.28-6.28,6.28s-6.28-2.82-6.28-6.28,2.82-6.28,6.28-6.28,6.28,2.82,6.28,6.28Zm-2.26,0c0-2.22-1.8-4.02-4.02-4.02s-4.02,1.8-4.02,4.02,1.8,4.02,4.02,4.02,4.02-1.8,4.02-4.02Zm8.69-5.04c0-4.23-3.43-7.66-7.66-7.66h-10.45c-4.23,0-7.66,3.43-7.66,7.66v10.45c0,4.23,3.43,7.66,7.66,7.66h10.45c4.23,0,7.66-3.43,7.66-7.66v-10.45Zm-2.51,10.34c0,2.91-2.36,5.26-5.26,5.26h-10.22c-2.91,0-5.26-2.36-5.26-5.26v-10.22c0-2.91,2.36-5.26,5.26-5.26h10.22c2.91,0,5.26,2.36,5.26,5.26v10.22Z"/>
      <path class="cls-1" d="m24.96,0C11.2,0,0,11.2,0,24.96s11.2,24.96,24.96,24.96,24.96-11.2,24.96-24.96S38.72,0,24.96,0Zm0,46.71c-12,0-21.76-9.76-21.76-21.76S12.96,3.2,24.96,3.2s21.76,9.76,21.76,21.76-9.76,21.76-21.76,21.76Z"/>
    </g>
  </g>
</svg>