<?xml version="1.0" encoding="utf-8"?>
<!-- Generator: Adobe Illustrator 27.7.0, SVG Export Plug-In . SVG Version: 6.00 Build 0)  -->
<svg version="1.1" id="Layer_1" xmlns="http://www.w3.org/2000/svg" xmlns:xlink="http://www.w3.org/1999/xlink" x="0px" y="0px"
	 viewBox="0 0 800 800" style="enable-background:new 0 0 800 800;" xml:space="preserve">
<style type="text/css">
	.st0{fill:#985D6F;}
</style>
<g>
	<path class="st0" d="M400,525c-68.9,0-125-56.1-125-125s56.1-125,125-125s125,56.1,125,125S468.9,525,400,525z M400,325
		c-41.4,0-75,33.6-75,75c0,41.4,33.6,75,75,75c41.4,0,75-33.6,75-75C475,358.6,441.4,325,400,325z"/>
</g>
<g>
	<path class="st0" d="M246.8,578.2c-6.4,0-12.8-2.4-17.7-7.3c-45.6-45.6-70.8-106.3-70.8-170.9c0-64.6,25.1-125.2,70.8-170.9
		c9.8-9.8,25.6-9.8,35.4,0c9.8,9.8,9.8,25.6,0,35.4c-74.7,74.7-74.7,196.3,0,271.1c9.8,9.8,9.8,25.6,0,35.4
		C259.6,575.8,253.2,578.2,246.8,578.2z M553.2,578.2c-6.4,0-12.8-2.4-17.7-7.3c-9.8-9.8-9.8-25.6,0-35.4
		c13.9-13.9,25.6-29.8,34.6-47.1c6.4-12.2,21.5-17,33.7-10.6c12.2,6.4,17,21.5,10.6,33.7c-11.4,21.8-26,41.8-43.6,59.3
		C566,575.8,559.6,578.2,553.2,578.2z M614.1,391.7c-12.1,0-22.8-8.8-24.7-21.2c-6.3-40.4-24.9-77-53.9-106
		c-9.8-9.8-9.8-25.6,0-35.4c9.8-9.8,25.6-9.8,35.4,0c36.5,36.5,60,82.8,67.9,133.7c2.1,13.6-7.2,26.4-20.9,28.5
		C616.6,391.6,615.3,391.7,614.1,391.7z"/>
</g>
<g>
	<path class="st0" d="M400,758.3c-48.4,0-95.3-9.5-139.5-28.2c-42.7-18-81-43.9-113.9-76.8c-32.9-32.9-58.7-71.2-76.8-113.9
		C51.1,495.3,41.7,448.4,41.7,400c0-63,16.6-125,48-179.2c6.9-12,22.2-16,34.2-9.1c12,6.9,16,22.2,9.1,34.2
		c-27,46.6-41.2,99.9-41.2,154.1c0,82.4,32.1,159.8,90.3,218c58.2,58.2,135.7,90.3,218,90.3c82.4,0,159.8-32.1,218-90.3
		c58.2-58.2,90.3-135.7,90.3-218c0-82.4-32.1-159.8-90.3-218c-58.2-58.2-135.7-90.3-218-90.3c-54.2,0-107.5,14.3-154.1,41.2
		c-12,6.9-27.2,2.8-34.2-9.1c-6.9-12-2.8-27.2,9.1-34.2C275,58.2,337,41.7,400,41.7c48.4,0,95.3,9.5,139.5,28.2
		c42.7,18,81,43.9,113.9,76.8c32.9,32.9,58.7,71.2,76.8,113.9c18.7,44.2,28.2,91.1,28.2,139.5c0,48.4-9.5,95.3-28.2,139.5
		c-18,42.7-43.9,81-76.8,113.9c-32.9,32.9-71.2,58.7-113.9,76.8C495.3,748.9,448.4,758.3,400,758.3z"/>
</g>
</svg>
